# xmcd CD database file
#
# Track frame offsets:
#	150
#	13841
#	27042
#	44176
#	55711
#	70967
#	87453
#	105474
#	125308
#	137116
#	151453
#	165221
#
# Disc length: 2358 seconds
#
# Revision: 0
# Processed by: cddbd v1.5.1PL0 Copyright (c) Steve Scherf et al.
# Submitted via: CDex 1.51
#
DISCID=9a09340c
DTITLE=Ken Mellons - Sweet
DYEAR=2003
DGENRE=Country
TTITLE0=Smack Dab
TTITLE1=Just What I'm Wantin' to Do
TTITLE2=Paint me a Birmingham
TTITLE3=Climb my Tree
TTITLE4=Interstate Gypsy
TTITLE5=You can't make my Heart Believe
TTITLE6=Sweet
TTITLE7=All I Need is a Bridge
TTITLE8=Single Again
TTITLE9=Any Time any Place
TTITLE10=Institute of Honky Tonks
TTITLE11=If I've learned Anything at All
EXTD=YEAR: 2003
EXTT0=
EXTT1=
EXTT2=
EXTT3=
EXTT4=
EXTT5=
EXTT6=
EXTT7=
EXTT8=
EXTT9=
EXTT10=
EXTT11=
PLAYORDER=
